<?xml version="1.0" encoding="UTF-8"?>
<svg version="1.1" xmlns="http://www.w3.org/2000/svg" width="160" height="160">
<path d="M0 0 C-2.30318147 7.80935365 -5.75489354 14.69517461 -9.5625 21.875 C-10.19052234 23.07033298 -10.81795765 24.26597456 -11.44482422 25.46191406 C-12.69893899 27.85190403 -13.95680757 30.23985244 -15.21826172 32.62597656 C-16.8209257 35.66089246 -18.41484604 38.7001334 -20.00390625 41.7421875 C-23.4736344 48.37411251 -23.4736344 48.37411251 -24.9140625 51.109375 C-25.2229541 51.69686523 -25.5318457 52.28435547 -25.85009766 52.88964844 C-27.51918139 55.95282462 -29.26927218 58.97122631 -31 62 C-13.18 62 4.64 62 23 62 C22.00931762 65.96272952 21.69073356 66.6846985 18.9375 69.3125 C18.29683594 69.92609375 17.65617187 70.5396875 16.99609375 71.171875 C14.53426204 73.4265467 12.02075854 75.61367503 9.4921875 77.79296875 C6.14408924 80.75797739 2.88723754 83.81612167 -0.375 86.875 C-5.38637375 91.57181633 -10.43064026 96.22227501 -15.55078125 100.80078125 C-19.88876325 104.69597083 -24.17452574 108.6484373 -28.46777344 112.59277344 C-30.97677112 114.89708552 -33.48850468 117.19841091 -36 119.5 C-37.00001352 120.41665192 -38.00001351 121.3333186 -39 122.25 C-48 130.5 -48 130.5 -57 138.75 C-57.4957251 139.20463623 -57.9914502 139.65927246 -58.50219727 140.12768555 C-59.49398045 141.03637557 -60.48664498 141.94410468 -61.48022461 142.85083008 C-64.1142882 145.25704998 -66.72723772 147.68219001 -69.31640625 150.13671875 C-70.13141602 150.90242188 -70.13141602 150.90242188 -70.96289062 151.68359375 C-72.00765223 152.66584825 -73.04699265 153.65390992 -74.08007812 154.6484375 C-77.66261341 158 -77.66261341 158 -81 158 C-79.2983507 152.81560273 -76.22885267 148.58280247 -73.20703125 144.09765625 C-72.6281163 143.23074661 -72.04920135 142.36383698 -71.45274353 141.47065735 C-69.577222 138.66485559 -67.69503637 135.86359892 -65.8125 133.0625 C-64.53192581 131.1501037 -63.25165244 129.23750593 -61.97167969 127.32470703 C-53.38381006 114.5018982 -44.73517356 101.72297018 -36 89 C-53.16 88.67 -70.32 88.34 -88 88 C-86.87498966 82.37494831 -86.87498966 82.37494831 -84.00363159 79.5158844 C-83.04490898 78.54674606 -83.04490898 78.54674606 -82.06681824 77.55802917 C-81.36140396 76.86542496 -80.65598969 76.17282074 -79.92919922 75.45922852 C-79.18927231 74.71711121 -78.4493454 73.9749939 -77.68699646 73.21038818 C-75.23574153 70.75681992 -72.77048839 68.31784872 -70.3046875 65.87890625 C-68.59572644 64.17486977 -66.88757711 62.47001887 -65.1802063 60.76438904 C-61.59650306 57.1883317 -58.00643594 53.61883771 -54.41113281 50.05444336 C-49.81281844 45.49559906 -45.22524279 40.92614614 -40.6417675 36.35238743 C-36.26207997 31.98270376 -31.87747763 27.61796624 -27.4921875 23.25390625 C-26.65974392 22.42485842 -25.82730034 21.59581059 -24.9696312 20.74164009 C-22.59813223 18.38178944 -20.2232295 16.02542168 -17.84716797 13.67016602 C-17.15389908 12.97958603 -16.46063019 12.28900604 -15.74635315 11.57749939 C-12.62490915 8.49009897 -9.46787938 5.44995269 -6.197052 2.52061462 C-5.38094043 1.78911902 -5.38094043 1.78911902 -4.54834175 1.04284573 C-3 0 -3 0 0 0 Z " fill="#F8A504" transform="translate(113,1)"/>
<path d="M0 0 C0 3.32090388 -0.51723119 4.2038561 -2.23046875 6.94921875 C-2.70419922 7.71556641 -3.17792969 8.48191406 -3.66601562 9.27148438 C-4.16810547 10.06876953 -4.67019531 10.86605469 -5.1875 11.6875 C-5.67025391 12.46544922 -6.15300781 13.24339844 -6.65039062 14.04492188 C-8.55752889 17.11426252 -10.47590271 20.17601817 -12.4152832 23.22509766 C-12.85573975 23.92038574 -13.29619629 24.61567383 -13.75 25.33203125 C-14.33587891 26.25012573 -14.33587891 26.25012573 -14.93359375 27.18676758 C-16.59654821 30.01432316 -17.79379142 32.95273623 -19 36 C-19.66 36 -20.32 36 -21 36 C-21.23783203 36.81791016 -21.23783203 36.81791016 -21.48046875 37.65234375 C-21.83044922 38.78349609 -21.83044922 38.78349609 -22.1875 39.9375 C-22.51814453 41.03384766 -22.51814453 41.03384766 -22.85546875 42.15234375 C-24.5145238 46.28016332 -26.83949702 50.11109463 -29 54 C-14.48 54 0.04 54 15 54 C15 56 15 56 12.95703125 58.1640625 C11.97194705 59.10999281 10.98620196 60.0552351 10 61 C8.83423208 62.17149403 7.67166016 63.34617413 6.51171875 64.5234375 C-5.15779407 76.29003193 -5.15779407 76.29003193 -11.109375 81.3359375 C-17.24521703 86.73649268 -22.82471607 92.6989483 -28.12890625 98.90625 C-31.89452622 103.11997088 -35.96907508 107.0420697 -40 111 C-40.33 110.01 -40.66 109.02 -41 108 C-39.4453125 105.50390625 -39.4453125 105.50390625 -37.125 102.5625 C-36.27969011 101.47546085 -35.43464489 100.38821583 -34.58984375 99.30078125 C-33.93798096 98.47247803 -33.93798096 98.47247803 -33.27294922 97.62744141 C-31.37214171 95.1972951 -29.5315383 92.72337981 -27.6875 90.25 C-25.09892535 86.7955289 -22.50621359 83.34434513 -19.90625 79.8984375 C-19.37298096 79.19041992 -18.83971191 78.48240234 -18.2902832 77.75292969 C-17.24847209 76.3697727 -16.20540904 74.98755749 -15.16088867 73.60644531 C-14.6785376 72.96545898 -14.19618652 72.32447266 -13.69921875 71.6640625 C-13.27471436 71.10154785 -12.85020996 70.5390332 -12.4128418 69.95947266 C-10.53631394 67.35691302 -8.77977297 64.66965946 -7 62 C-22.84 62 -38.68 62 -55 62 C-50.50189908 55.25284862 -50.50189908 55.25284862 -47.93359375 52.5546875 C-47.37140137 51.95897949 -46.80920898 51.36327148 -46.22998047 50.74951172 C-45.63846191 50.13092285 -45.04694336 49.51233398 -44.4375 48.875 C-43.17793404 47.54209306 -41.91882451 46.20875467 -40.66015625 44.875 C-40.03898926 44.21886719 -39.41782227 43.56273437 -38.77783203 42.88671875 C-36.28367639 40.23980379 -33.82802309 37.56011407 -31.375 34.875 C-28.06700785 31.25566741 -24.75075954 27.64464677 -21.4206543 24.0456543 C-10.45939273 12.24359613 -10.45939273 12.24359613 0 0 Z " fill="#FEFEBF" transform="translate(99,18)"/>
<path d="M0 0 C0.66 0.33 1.32 0.66 2 1 C0.125 5.75 0.125 5.75 -1 8 C16.82 8 34.64 8 53 8 C52.00931762 11.96272952 51.69073356 12.6846985 48.9375 15.3125 C48.29683594 15.92609375 47.65617187 16.5396875 46.99609375 17.171875 C44.53426204 19.4265467 42.02075854 21.61367503 39.4921875 23.79296875 C36.14408924 26.75797739 32.88723754 29.81612167 29.625 32.875 C24.61362625 37.57181633 19.56935974 42.22227501 14.44921875 46.80078125 C10.11123675 50.69597083 5.82547426 54.6484373 1.53222656 58.59277344 C-0.97677112 60.89708552 -3.48850468 63.19841091 -6 65.5 C-7.00001352 66.41665192 -8.00001351 67.3333186 -9 68.25 C-18 76.5 -18 76.5 -27 84.75 C-27.4957251 85.20463623 -27.9914502 85.65927246 -28.50219727 86.12768555 C-29.49398045 87.03637557 -30.48664498 87.94410468 -31.48022461 88.85083008 C-34.1142882 91.25704998 -36.72723772 93.68219001 -39.31640625 96.13671875 C-39.85974609 96.6471875 -40.40308594 97.15765625 -40.96289062 97.68359375 C-42.00765223 98.66584825 -43.04699265 99.65390992 -44.08007812 100.6484375 C-47.66261341 104 -47.66261341 104 -51 104 C-49.29186054 98.77750349 -46.17923063 94.50850946 -43.13671875 89.9921875 C-42.54889114 89.11209015 -41.96106354 88.2319928 -41.35542297 87.32522583 C-39.47041685 84.50557777 -37.57895045 81.69032803 -35.6875 78.875 C-34.45728162 77.03542414 -33.22746017 75.19558276 -31.99804688 73.35546875 C-28.9539794 68.80293749 -25.8937547 64.26151298 -22.82952881 59.72253418 C-20.969743 56.95497435 -19.12773209 54.17616351 -17.28759766 51.39550781 C-16.11521726 49.64106992 -14.94254119 47.88682955 -13.76953125 46.1328125 C-12.96233894 44.90025223 -12.96233894 44.90025223 -12.13883972 43.64279175 C-11.63774185 42.89844879 -11.13664398 42.15410583 -10.62036133 41.38720703 C-9.96720695 40.40205612 -9.96720695 40.40205612 -9.30085754 39.39700317 C-8.87157455 38.93599213 -8.44229156 38.47498108 -8 38 C-7.01 38 -6.02 38 -5 38 C-3.34496905 36.9227279 -3.34496905 36.9227279 -1.8125 35.5 C-0.884375 34.675 0.04375 33.85 1 33 C1.33 33.99 1.66 34.98 2 36 C0.4453125 38.49609375 0.4453125 38.49609375 -1.875 41.4375 C-2.71508873 42.51803874 -3.55492555 43.59877338 -4.39453125 44.6796875 C-4.82846191 45.23108398 -5.26239258 45.78248047 -5.70947266 46.35058594 C-7.69852843 48.89278435 -9.6290805 51.47785893 -11.5625 54.0625 C-12.2946875 55.03832031 -13.026875 56.01414063 -13.78125 57.01953125 C-17.22835447 61.65006067 -20.61949237 66.32071423 -24 71 C-23.505 71.495 -23.505 71.495 -23 72 C-13.0882508 62.27350687 -13.0882508 62.27350687 -3.765625 51.9921875 C2.00993381 45.47551717 8.35137175 39.47007068 14.9609375 33.8125 C21.1107908 28.34596373 26.90025113 22.45968191 32 16 C32.66 16.33 33.32 16.66 34 17 C39.90571107 17.05801288 43.60849039 16.12535751 48 12 C48.66 12 49.32 12 50 12 C50 11.01 50 10.02 50 9 C49.319375 9.33 48.63875 9.66 47.9375 10 C44.49159762 11.17307315 41.61602578 11.14180493 38 11 C38 10.34 38 9.68 38 9 C24.8 9 11.6 9 -2 9 C-2 3 -2 3 0 0 Z " fill="#F69407" transform="translate(83,55)"/>
<path d="M0 0 C0.66 0.33 1.32 0.66 2 1 C-2.67168988 6.41055216 -7.46288258 11.6824451 -12.375 16.875 C-22.2907271 26.9483644 -22.2907271 26.9483644 -31 38 C-7.735 38.495 -7.735 38.495 16 39 C14.08523589 43.78691028 12.81363548 45.74445752 9 49 C8.01 49 7.02 49 6 49 C4.34496905 50.0772721 4.34496905 50.0772721 2.8125 51.5 C1.884375 52.325 0.95625 53.15 0 54 C0.33 52.35 0.66 50.7 1 49 C-16.16 48.67 -33.32 48.34 -51 48 C-49.91711397 42.58556983 -49.06354119 41.56443186 -45.25 37.875 C-44.38890625 37.02679688 -43.5278125 36.17859375 -42.640625 35.3046875 C-40 33 -40 33 -37.62792969 31.64111328 C-34.75502769 29.84701748 -32.67025146 27.86539944 -30.3125 25.4375 C-29.44882812 24.55835937 -28.58515625 23.67921875 -27.6953125 22.7734375 C-26.80585937 21.85820313 -25.91640625 20.94296875 -25 20 C-23.23398938 18.18280066 -21.4633144 16.37012003 -19.6875 14.5625 C-18.90761719 13.75941406 -18.12773438 12.95632812 -17.32421875 12.12890625 C-15.01288131 10.01179884 -12.71272659 8.54935686 -10 7 C-8.12378714 5.21185428 -6.39760957 3.33720684 -4.6484375 1.42578125 C-3 0 -3 0 0 0 Z " fill="#FEA102" transform="translate(76,41)"/>
<path d="M0 0 C0.66 0.33 1.32 0.66 2 1 C0.125 5.75 0.125 5.75 -1 8 C16.82 8 34.64 8 53 8 C52.00931762 11.96272952 51.69073356 12.6846985 48.9375 15.3125 C47.97650391 16.23289062 47.97650391 16.23289062 46.99609375 17.171875 C44.53426204 19.4265467 42.02075854 21.61367503 39.4921875 23.79296875 C36.14408924 26.75797739 32.88723754 29.81612167 29.625 32.875 C24.61962648 37.56619272 19.58493417 42.21491312 14.46484375 46.78125 C12.62915775 48.43365832 10.81121354 50.09832763 9.00390625 51.78125 C3.5500063 56.85258456 -1.92052652 61.6742208 -8 66 C-7.23667604 62.51687125 -5.84552679 60.04913122 -4 57 C-4 56.34 -4 55.68 -4 55 C-4.66 54.67 -5.32 54.34 -6 54 C8.81083031 39.00114157 8.81083031 39.00114157 15.1015625 33.671875 C21.22268819 28.28125402 26.9458204 22.40196083 32 16 C32.66 16.33 33.32 16.66 34 17 C39.90571107 17.05801288 43.60849039 16.12535751 48 12 C48.66 12 49.32 12 50 12 C50 11.01 50 10.02 50 9 C49.319375 9.33 48.63875 9.66 47.9375 10 C44.49159762 11.17307315 41.61602578 11.14180493 38 11 C38 10.34 38 9.68 38 9 C24.8 9 11.6 9 -2 9 C-2 3 -2 3 0 0 Z " fill="#F6A215" transform="translate(83,55)"/>
<path d="M0 0 C0.33 0.66 0.66 1.32 1 2 C1.66 2.33 2.32 2.66 3 3 C2.67 4.65 2.34 6.3 2 8 C1.34 8 0.68 8 0 8 C-0.66 10.64 -1.32 13.28 -2 16 C11.2 16 24.4 16 38 16 C38 16.66 38 17.32 38 18 C41.96 17.34 45.92 16.68 50 16 C50 16.99 50 17.98 50 19 C42.80806309 25.42683724 35.85120725 25.11979845 26.62036133 24.90820312 C25.29933159 24.878172 25.29933159 24.878172 23.95161438 24.84753418 C22.53117073 24.81472351 22.53117073 24.81472351 21.08203125 24.78125 C20.10965012 24.75905396 19.13726898 24.73685791 18.13542175 24.71398926 C15.02777376 24.64297905 11.92013687 24.57149508 8.8125 24.5 C6.70638092 24.45179173 4.60026114 24.40361426 2.49414062 24.35546875 C-2.67058117 24.2373367 -7.83529306 24.11877973 -13 24 C-12.21724773 20.49238371 -10.8632276 18.0814918 -9 15 C-7.93954687 12.68901253 -6.97515139 10.34922834 -6 8 C-5.67 7.34 -5.34 6.68 -5 6 C-4.34 6 -3.68 6 -3 6 C-2.690625 5.195625 -2.38125 4.39125 -2.0625 3.5625 C-1 1 -1 1 0 0 Z " fill="#FEBA02" transform="translate(83,48)"/>
<path d="M0 0 C0.66 0.33 1.32 0.66 2 1 C-2.9668638 6.69637192 -7.97167385 12.35782624 -13 18 C-13.66 17.67 -14.32 17.34 -15 17 C-15 16.34 -15 15.68 -15 15 C-20.76381291 19.83896041 -26.06850627 25.03729316 -31.2890625 30.44921875 C-34.02154327 33.02027054 -36.87512746 34.94022486 -40 37 C-41.77148372 39.47933197 -41.77148372 39.47933197 -43 42 C-43.66 42.99 -44.32 43.98 -45 45 C-29.49 45 -13.98 45 2 45 C2 45.99 2 46.98 2 48 C-15.49 48 -32.98 48 -51 48 C-49.91711397 42.58556983 -49.06354119 41.56443186 -45.25 37.875 C-44.38890625 37.02679688 -43.5278125 36.17859375 -42.640625 35.3046875 C-40 33 -40 33 -37.62792969 31.64111328 C-34.75502769 29.84701748 -32.67025146 27.86539944 -30.3125 25.4375 C-29.44882812 24.55835937 -28.58515625 23.67921875 -27.6953125 22.7734375 C-26.80585937 21.85820313 -25.91640625 20.94296875 -25 20 C-23.23398938 18.18280066 -21.4633144 16.37012003 -19.6875 14.5625 C-18.90761719 13.75941406 -18.12773438 12.95632812 -17.32421875 12.12890625 C-15.01288131 10.01179884 -12.71272659 8.54935686 -10 7 C-8.12378714 5.21185428 -6.39760957 3.33720684 -4.6484375 1.42578125 C-3 0 -3 0 0 0 Z " fill="#FAB001" transform="translate(76,41)"/>
<path d="M0 0 C0.66 0.33 1.32 0.66 2 1 C0.41023798 6.05387309 -2.64612256 9.71292455 -5.875 13.8125 C-7.05148796 15.32757649 -8.22725182 16.84321549 -9.40234375 18.359375 C-10.00030762 19.12830078 -10.59827148 19.89722656 -11.21435547 20.68945312 C-13.99340224 24.28541958 -16.71735537 27.92188483 -19.4375 31.5625 C-19.90849121 32.19196533 -20.37948242 32.82143066 -20.86474609 33.4699707 C-21.32059082 34.07929443 -21.77643555 34.68861816 -22.24609375 35.31640625 C-22.69307617 35.9108252 -23.14005859 36.50524414 -23.60058594 37.11767578 C-24.60664322 38.47090356 -25.59776553 39.83528213 -26.57910156 41.20654297 C-27.10342773 41.93115723 -27.62775391 42.65577148 -28.16796875 43.40234375 C-28.87796021 44.39802368 -28.87796021 44.39802368 -29.60229492 45.41381836 C-31 47 -31 47 -33.875 48 C-34.57625 48 -35.2775 48 -36 48 C-34.32969722 42.85587732 -31.25630546 38.76150235 -28.1875 34.375 C-27.01640131 32.6891672 -25.84584514 31.00295742 -24.67578125 29.31640625 C-24.0720166 28.44773926 -23.46825195 27.57907227 -22.84619141 26.68408203 C-20.98817165 23.98280338 -19.16719937 21.25984601 -17.35546875 18.52734375 C-16.77192627 17.65352051 -16.18838379 16.77969727 -15.5871582 15.87939453 C-14.45953619 14.18884586 -13.33936787 12.49329791 -12.22729492 10.79248047 C-11.71658447 10.03209473 -11.20587402 9.27170898 -10.6796875 8.48828125 C-10.23351074 7.81321533 -9.78733398 7.13814941 -9.32763672 6.44262695 C-8.8895166 5.96656006 -8.45139648 5.49049316 -8 5 C-7.01 5 -6.02 5 -5 5 C-2.31232422 2.56249975 -2.31232422 2.56249975 0 0 Z " fill="#F3970D" transform="translate(83,88)"/>
<path d="M0 0 C0.495 1.485 0.495 1.485 1 3 C-0.28189588 5.03335209 -1.62156808 7.03081154 -3 9 C-3.22042969 9.73992187 -3.44085938 10.47984375 -3.66796875 11.2421875 C-5.70924353 15.46840448 -9.04852502 18.13540786 -12.5 21.25 C-13.21816895 21.9095166 -13.93633789 22.5690332 -14.67626953 23.24853516 C-16.77694913 25.17380448 -18.88770074 27.08749892 -21 29 C-22.07096912 29.98105452 -23.14136177 30.96273906 -24.2109375 31.9453125 C-30.66725979 37.83362989 -30.66725979 37.83362989 -33 39 C-31.23168332 30.58360472 -25.31888294 24.97726259 -19.125 19.4375 C-13.06017082 13.92651183 -13.06017082 13.92651183 -7.1171875 8.28515625 C-6.56401855 7.74898682 -6.01084961 7.21281738 -5.44091797 6.66040039 C-3.90204032 5.02634275 -3.90204032 5.02634275 -2.93017578 2.85717773 C-2 1 -2 1 0 0 Z " fill="#F99304" transform="translate(79,109)"/>
<path d="M0 0 C0.33 0.66 0.66 1.32 1 2 C-0.07983398 4.52197266 -0.07983398 4.52197266 -1.74609375 7.6640625 C-2.33583984 8.78554688 -2.92558594 9.90703125 -3.53320312 11.0625 C-4.16779771 12.25009141 -4.80256561 13.43759023 -5.4375 14.625 C-6.06909016 15.81992652 -6.69995906 17.01523457 -7.33007812 18.2109375 C-8.87964362 21.14446608 -10.43654853 24.07385522 -12 27 C-12.33 27 -12.66 27 -13 27 C-12.938125 26.21625 -12.87625 25.4325 -12.8125 24.625 C-12.874375 23.75875 -12.93625 22.8925 -13 22 C-13.99 21.34 -14.98 20.68 -16 20 C-14.62712658 16.30123909 -12.93644547 13.0485524 -10.875 9.6875 C-10.33617188 8.80449219 -9.79734375 7.92148437 -9.2421875 7.01171875 C-8.83226563 6.34785156 -8.42234375 5.68398438 -8 5 C-7.34 5.33 -6.68 5.66 -6 6 C-3.90178785 5.60061233 -3.90178785 5.60061233 -2 5 C-2 3.68 -2 2.36 -2 1 C-1.34 0.67 -0.68 0.34 0 0 Z " fill="#ECAA23" transform="translate(98,29)"/>
<path d="M0 0 C14.52 0 29.04 0 44 0 C44 2 44 2 41.98828125 4.13671875 C40.99334324 5.09235057 39.99709215 6.046616 39 7 C37.74078815 8.25380316 36.48446552 9.51051221 35.23046875 10.76953125 C31.48697917 14.51302083 27.74348958 18.25651042 24 22 C24 19 24 19 25.36108398 17.31420898 C25.98313721 16.71423096 26.60519043 16.11425293 27.24609375 15.49609375 C28.25446289 14.50899414 28.25446289 14.50899414 29.28320312 13.50195312 C29.99412109 12.82068359 30.70503906 12.13941406 31.4375 11.4375 C32.8341114 10.08417464 34.22874302 8.72880226 35.62109375 7.37109375 C36.2442749 6.77224365 36.86745605 6.17339355 37.50952148 5.55639648 C39.09713961 4.0520826 39.09713961 4.0520826 40 2 C38.28901123 2.01571045 38.28901123 2.01571045 36.54345703 2.03173828 C32.32050706 2.06787717 28.09757081 2.09087812 23.87451172 2.10986328 C22.04506127 2.11993484 20.21562697 2.13359276 18.38623047 2.15087891 C15.76005066 2.17507677 13.13408325 2.18647132 10.5078125 2.1953125 C9.27649094 2.21079636 9.27649094 2.21079636 8.02029419 2.22659302 C6.01210858 2.22699184 4.00444618 2.1224954 2 2 C1.34 1.34 0.68 0.68 0 0 Z " fill="#FFF866" transform="translate(70,72)"/>
<path d="M0 0 C0 4.24645065 -1.81750806 6.38524772 -4 10 C-3.34 10 -2.68 10 -2 10 C-3.3584202 13.04332765 -4.88463024 15.12309151 -7.2578125 17.453125 C-7.88300781 18.071875 -8.50820312 18.690625 -9.15234375 19.328125 C-9.80332031 19.96234375 -10.45429687 20.5965625 -11.125 21.25 C-11.78371094 21.8996875 -12.44242187 22.549375 -13.12109375 23.21875 C-14.74296643 24.81711727 -16.3693281 26.41061897 -18 28 C-18.33 27.01 -18.66 26.02 -19 25 C-17.4453125 22.50390625 -17.4453125 22.50390625 -15.125 19.5625 C-14.29393586 18.49505237 -13.46321721 17.42733569 -12.6328125 16.359375 C-12.20000977 15.80958984 -11.76720703 15.25980469 -11.32128906 14.69335938 C-9.16828548 11.93407763 -7.08798947 9.12108903 -5 6.3125 C-1.12307692 1.12307692 -1.12307692 1.12307692 0 0 Z " fill="#FFF364" transform="translate(77,101)"/>
<path d="M0 0 C0.66 0.33 1.32 0.66 2 1 C0.125 5.75 0.125 5.75 -1 8 C14.84 8 30.68 8 47 8 C47 8.33 47 8.66 47 9 C30.83 9 14.66 9 -2 9 C-2 3 -2 3 0 0 Z " fill="#E19C1D" transform="translate(83,55)"/>
<path d="M0 0 C-0.84801704 5.05462789 -4.11514652 7.89211722 -8 11 C-10.9375 11.9375 -10.9375 11.9375 -13 12 C-11.89904638 8.69713914 -11.3103981 8.21489099 -8.5625 6.3125 C-7.94503906 5.87550781 -7.32757813 5.43851562 -6.69140625 4.98828125 C-5 4 -5 4 -3 4 C-3 3.01 -3 2.02 -3 1 C-3.680625 1.33 -4.36125 1.66 -5.0625 2 C-8.50840238 3.17307315 -11.38397422 3.14180493 -15 3 C-15 2.34 -15 1.68 -15 1 C-9.9752761 0.37470103 -5.07471573 -0.13012092 0 0 Z " fill="#FB9F04" transform="translate(136,63)"/>
<path d="M0 0 C0.33 0.66 0.66 1.32 1 2 C-6.74102394 11.22053705 -14.99703251 20.20715388 -25 27 C-23.60846256 22.57238086 -21.47928514 20.0443745 -18 17 C-17.34 17 -16.68 17 -16 17 C-14.43627771 15.73168816 -14.43627771 15.73168816 -12.8125 14.04296875 C-12.19632813 13.42486328 -11.58015625 12.80675781 -10.9453125 12.16992188 C-10.30335937 11.51572266 -9.66140625 10.86152344 -9 10.1875 C-8.35804687 9.54490234 -7.71609375 8.90230469 -7.0546875 8.24023438 C-4.40810826 5.56873964 -2.09489717 3.14234576 0 0 Z " fill="#FFAB0C" transform="translate(76,110)"/>
<path d="M0 0 C0.66 0.33 1.32 0.66 2 1 C-2.9668638 6.69637192 -7.97167385 12.35782624 -13 18 C-13.66 17.67 -14.32 17.34 -15 17 C-11.80573668 9.96948907 -6.00185406 4.6843739 0 0 Z " fill="#FFBA07" transform="translate(76,41)"/>
<path d="M0 0 C0.144375 0.639375 0.28875 1.27875 0.4375 1.9375 C0.81007181 3.97545146 0.81007181 3.97545146 2 5 C2.45226612 9.86186074 1.40385693 12.79325038 -1 17 C-1.33 17 -1.66 17 -2 17 C-1.938125 16.21625 -1.87625 15.4325 -1.8125 14.625 C-1.874375 13.75875 -1.93625 12.8925 -2 12 C-2.99 11.34 -3.98 10.68 -5 10 C-3.66511872 6.40608886 -2.03977277 3.24509304 0 0 Z " fill="#FEC325" transform="translate(87,39)"/>
<path d="M0 0 C0.66 0 1.32 0 2 0 C0.40956621 5.08938811 -2.7446951 8.87456643 -6 13 C-6.33 12.34 -6.66 11.68 -7 11 C-7.66 10.67 -8.32 10.34 -9 10 C-7.64077101 5.10677564 -5.27472965 3.54664745 -1 1 C-0.67 0.67 -0.34 0.34 0 0 Z " fill="#F4910C" transform="translate(65,113)"/>
<path d="M0 0 C0 3.61187162 -0.98421186 5.10476598 -2.8125 8.1875 C-3.33457031 9.08855469 -3.85664062 9.98960938 -4.39453125 10.91796875 C-4.92433594 11.60503906 -5.45414062 12.29210938 -6 13 C-6.99 13 -7.98 13 -9 13 C-9.99 13.66 -10.98 14.32 -12 15 C-10.38462556 11.10082032 -7.72075127 8.28706228 -4.875 5.25 C-4.40707031 4.74339844 -3.93914062 4.23679687 -3.45703125 3.71484375 C-2.30873459 2.47280859 -1.15491328 1.23588506 0 0 Z " fill="#FFF34C" transform="translate(99,18)"/>
<path d="M0 0 C0 4.24645065 -1.81750806 6.38524772 -4 10 C-3.34 10 -2.68 10 -2 10 C-2.66 11.32 -3.32 12.64 -4 14 C-4.99 14 -5.98 14 -7 14 C-6.73672346 7.54972485 -4.49335977 4.52084209 0 0 Z " fill="#FFF680" transform="translate(77,101)"/>
<path d="M0 0 C1 3 1 3 0.22265625 4.82421875 C-0.8515625 6.54947917 -1.92578125 8.27473958 -3 10 C-3.66 9.34 -4.32 8.68 -5 8 C-5.99 7.67 -6.98 7.34 -8 7 C-5.36 4.69 -2.72 2.38 0 0 Z " fill="#FFFEB2" transform="translate(91,29)"/>
<path d="M0 0 C-0.66 1.65 -1.32 3.3 -2 5 C-2.99 4.34 -3.98 3.68 -5 3 C-2.25 0 -2.25 0 0 0 Z M-7 2 C-6.34 2.99 -5.68 3.98 -5 5 C-6.65 6.32 -8.3 7.64 -10 9 C-10 5.48283697 -9.17554415 4.62878252 -7 2 Z " fill="#E79218" transform="translate(70,109)"/>
<path d="M0 0 C0.33 0.99 0.66 1.98 1 3 C-0.65 4.65 -2.3 6.3 -4 8 C-4 7.34 -4 6.68 -4 6 C-4.66 5.67 -5.32 5.34 -6 5 C-4.06745228 2.9754262 -2.36841312 1.57894208 0 0 Z " fill="#FE9506" transform="translate(62,118)"/>
<path d="M0 0 C0.625 1.8125 0.625 1.8125 1 4 C0.01 5.485 0.01 5.485 -1 7 C-1.66 6.67 -2.32 6.34 -3 6 C-2.67 5.34 -2.34 4.68 -2 4 C-2.99 4.33 -3.98 4.66 -5 5 C-4 2 -4 2 -1.9375 0.8125 C-1.298125 0.544375 -0.65875 0.27625 0 0 Z " fill="#F99E0D" transform="translate(50,134)"/>
<path d="M0 0 C0.33 1.32 0.66 2.64 1 4 C-1.31 5.98 -3.62 7.96 -6 10 C-4.6302836 6.00499382 -2.74277578 3.19990508 0 0 Z " fill="#FFE12B" transform="translate(57,127)"/>
<path d="M0 0 C0 3.57575896 -1.08840607 5.05295935 -3 8 C-4.32 7.67 -5.64 7.34 -7 7 C-4.69 4.69 -2.38 2.38 0 0 Z " fill="#FFC61D" transform="translate(84,102)"/>
<path d="M0 0 C0.66 0.99 1.32 1.98 2 3 C-0.97 5.475 -0.97 5.475 -4 8 C-3.40072174 4.64404172 -2.15377564 2.62198774 0 0 Z " fill="#FFF758" transform="translate(62,121)"/>
<path d="M0 0 C0.66 0 1.32 0 2 0 C1.46930939 3.82097239 0.50298434 6.06171403 -2 9 C-1.125 2.25 -1.125 2.25 0 0 Z " fill="#D8AE36" transform="translate(91,39)"/>
<path d="M0 0 C0.99 0 1.98 0 3 0 C1.95125002 2.62187494 1.35068687 3.79371361 -1.125 5.25 C-1.74375 5.4975 -2.3625 5.745 -3 6 C-2 4 -1 2 0 0 Z " fill="#FFFE8E" transform="translate(66,117)"/>
<path d="M0 0 C0.66 0.33 1.32 0.66 2 1 C0.25 6.75 0.25 6.75 -2 9 C-1.125 2.25 -1.125 2.25 0 0 Z " fill="#CAA93B" transform="translate(87,47)"/>
</svg>
